<?xml version="1.0" encoding="UTF-8"?>
<svg id="_Слой_1" data-name="Слой 1" xmlns="http://www.w3.org/2000/svg" viewBox="0 0 512 512">
  <defs>
    <style>
      .cls-1 {
        fill: #fff;
      }
    </style>
  </defs>
  <path class="cls-1" d="M256,89.9h0c-77.44,0-140.22,62.78-140.22,140.22v121.41c0,38.36,30.58,69.5,68.68,70.56v-19.71c0-23.13,18.75-41.88,41.88-41.88h59.32c23.13,0,41.88,18.75,41.88,41.88v19.71c38.1-1.06,68.68-32.2,68.68-70.56v-121.41c0-77.44-62.78-140.22-140.22-140.22ZM256,301.67c-39.51,0-71.54-32.03-71.54-71.54s32.03-71.54,71.54-71.54,71.54,32.03,71.54,71.54-32.03,71.54-71.54,71.54Z"/>
</svg>